<svg xmlns="http://www.w3.org/2000/svg" width="21.908" height="21.908" viewBox="0 0 21.908 21.908">
  <path id="Path_40" data-name="Path 40" d="M10.954,1.947a33.587,33.587,0,0,1,4.382.122,5.645,5.645,0,0,1,2.069.365A4.274,4.274,0,0,1,19.474,4.5a5.645,5.645,0,0,1,.365,2.069c0,1.1.122,1.461.122,4.382a33.586,33.586,0,0,1-.122,4.382,5.645,5.645,0,0,1-.365,2.069A4.274,4.274,0,0,1,17.4,19.474a5.645,5.645,0,0,1-2.069.365c-1.1,0-1.461.122-4.382.122a33.586,33.586,0,0,1-4.382-.122A5.645,5.645,0,0,1,4.5,19.474,4.274,4.274,0,0,1,2.434,17.4a5.645,5.645,0,0,1-.365-2.069c0-1.1-.122-1.461-.122-4.382a33.587,33.587,0,0,1,.122-4.382A5.645,5.645,0,0,1,2.434,4.5a4.371,4.371,0,0,1,.852-1.217A2.058,2.058,0,0,1,4.5,2.434a5.645,5.645,0,0,1,2.069-.365,33.587,33.587,0,0,1,4.382-.122m0-1.947a35.962,35.962,0,0,0-4.5.122A7.514,7.514,0,0,0,3.773.609,4.765,4.765,0,0,0,1.826,1.826,4.765,4.765,0,0,0,.609,3.773,5.545,5.545,0,0,0,.122,6.451,35.962,35.962,0,0,0,0,10.954a35.962,35.962,0,0,0,.122,4.5,7.514,7.514,0,0,0,.487,2.678,4.765,4.765,0,0,0,1.217,1.947A4.765,4.765,0,0,0,3.773,21.3a7.514,7.514,0,0,0,2.678.487,35.962,35.962,0,0,0,4.5.122,35.962,35.962,0,0,0,4.5-.122,7.514,7.514,0,0,0,2.678-.487A5.106,5.106,0,0,0,21.3,18.135a7.514,7.514,0,0,0,.487-2.678c0-1.217.122-1.582.122-4.5a35.962,35.962,0,0,0-.122-4.5A7.514,7.514,0,0,0,21.3,3.773a4.765,4.765,0,0,0-1.217-1.947A4.765,4.765,0,0,0,18.135.609,7.514,7.514,0,0,0,15.457.122,35.962,35.962,0,0,0,10.954,0m0,5.355a5.508,5.508,0,0,0-5.6,5.6,5.6,5.6,0,1,0,5.6-5.6m0,9.25A3.586,3.586,0,0,1,7.3,10.954,3.586,3.586,0,0,1,10.954,7.3a3.586,3.586,0,0,1,3.651,3.651,3.586,3.586,0,0,1-3.651,3.651M16.8,3.773a1.339,1.339,0,1,0,1.339,1.339A1.351,1.351,0,0,0,16.8,3.773" fill="#fff" fill-rule="evenodd"/>
</svg>
