<svg xmlns="http://www.w3.org/2000/svg" width="24.912" height="20.206" viewBox="0 0 24.912 20.206">
  <path id="Path_39" data-name="Path 39" d="M45.889,22.206A14.4,14.4,0,0,0,60.421,7.674V6.982a11.25,11.25,0,0,0,2.491-2.63,11.489,11.489,0,0,1-2.906.83A5.385,5.385,0,0,0,62.22,2.415a12.694,12.694,0,0,1-3.183,1.246A4.943,4.943,0,0,0,55.3,2a5.2,5.2,0,0,0-5.121,5.121,2.7,2.7,0,0,0,.138,1.107A14.309,14.309,0,0,1,39.8,2.83a5.3,5.3,0,0,0-.692,2.63,5.5,5.5,0,0,0,2.214,4.29,4.666,4.666,0,0,1-2.353-.692h0a5.058,5.058,0,0,0,4.152,4.982,4.267,4.267,0,0,1-1.384.138,2.355,2.355,0,0,1-.969-.138,5.243,5.243,0,0,0,4.844,3.6,10.449,10.449,0,0,1-6.366,2.214A3.832,3.832,0,0,1,38,19.715a13.063,13.063,0,0,0,7.889,2.491" transform="translate(-38 -2)" fill="#fff" fill-rule="evenodd"/>
</svg>
